<?xml version="1.0" encoding="UTF-8"?>
<svg xmlns="http://www.w3.org/2000/svg" xmlns:xlink="http://www.w3.org/1999/xlink" width="90pt" height="90pt" viewBox="0 0 90 90" version="1.1">
<g id="surface1">
<path style=" stroke:none;fill-rule:nonzero;fill:rgb(0%,86.27451%,76.470588%);fill-opacity:1;" d="M 31.914062 68.699219 L 31.675781 70.089844 L 29.070312 72.410156 C 27.144531 74.132812 24.273438 74.40625 22.117188 72.980469 C 20.917969 72.183594 20.050781 70.957031 19.875 69.320312 C 19.667969 67.398438 20.296875 65.355469 21.273438 63.429688 L 27.539062 62.613281 Z M 31.914062 68.699219 "/>
<path style=" stroke:none;fill-rule:nonzero;fill:rgb(0%,86.27451%,76.470588%);fill-opacity:1;" d="M 58.296875 68.699219 L 58.535156 70.089844 L 61.136719 72.410156 C 63.070312 74.132812 65.9375 74.40625 68.09375 72.980469 C 69.292969 72.183594 70.164062 70.957031 70.339844 69.320312 C 70.546875 67.398438 69.914062 65.355469 68.933594 63.429688 L 62.664062 62.613281 Z M 58.296875 68.699219 "/>
<path style=" stroke:none;fill-rule:nonzero;fill:rgb(89.019608%,59.607843%,42.745098%);fill-opacity:1;" d="M 34.628906 52.929688 L 31.914062 68.699219 L 21.273438 63.429688 C 21.28125 63.421875 21.285156 63.40625 21.296875 63.394531 C 22.292969 61.445312 23.585938 59.664062 24.960938 57.964844 C 27.378906 54.992188 30.652344 52.746094 34.628906 52.929688 Z M 34.628906 52.929688 "/>
<path style=" stroke:none;fill-rule:nonzero;fill:rgb(85.098039%,48.627451%,25.098039%);fill-opacity:1;" d="M 55.578125 52.929688 L 58.296875 68.699219 L 68.9375 63.429688 C 68.925781 63.421875 68.921875 63.40625 68.917969 63.394531 C 67.917969 61.445312 66.625 59.664062 65.246094 57.964844 C 62.828125 54.992188 59.558594 52.746094 55.578125 52.929688 Z M 55.578125 52.929688 "/>
<path style=" stroke:none;fill-rule:nonzero;fill:rgb(51.764706%,63.921569%,89.019608%);fill-opacity:1;" d="M 51.410156 81.386719 L 51.410156 77.578125 C 51.410156 76.578125 50.605469 75.773438 49.605469 75.773438 L 40.605469 75.773438 C 39.609375 75.773438 38.800781 76.578125 38.800781 77.578125 L 38.800781 81.386719 L 32.492188 85.015625 L 29.253906 81.386719 C 29.253906 80.601562 29.257812 79.839844 29.265625 79.097656 L 29.265625 79.039062 C 29.324219 75.703125 29.5 72.769531 29.753906 70.1875 L 45.101562 67.6875 L 60.457031 70.1875 C 60.710938 72.757812 60.886719 75.683594 60.9375 79.015625 L 60.9375 79.097656 C 60.953125 79.839844 60.960938 80.601562 60.960938 81.386719 L 58.296875 85.015625 Z M 51.410156 81.386719 "/>
<path style=" stroke:none;fill-rule:nonzero;fill:rgb(18.039216%,40.392157%,81.176471%);fill-opacity:1;" d="M 34.519531 81.386719 C 34.519531 80.601562 34.53125 79.839844 34.539062 79.097656 L 34.539062 79.039062 C 34.597656 75.703125 34.769531 72.769531 35.023438 70.1875 L 47.738281 68.117188 L 45.101562 67.6875 L 29.753906 70.1875 C 29.5 72.769531 29.324219 75.703125 29.265625 79.039062 L 29.265625 79.097656 C 29.257812 79.839844 29.253906 80.601562 29.253906 81.386719 L 32.492188 85.015625 L 35.976562 83.015625 Z M 34.519531 81.386719 "/>
<path style=" stroke:none;fill-rule:nonzero;fill:rgb(89.019608%,59.607843%,42.745098%);fill-opacity:1;" d="M 59.8125 65.183594 C 58.230469 55.640625 55.582031 52.929688 55.582031 52.929688 L 34.628906 52.929688 C 34.628906 52.929688 31.980469 55.640625 30.398438 65.183594 C 30.152344 66.679688 29.933594 68.34375 29.753906 70.1875 L 60.457031 70.1875 C 60.277344 68.34375 60.058594 66.679688 59.8125 65.183594 Z M 59.8125 65.183594 "/>
<path style=" stroke:none;fill-rule:nonzero;fill:rgb(85.098039%,48.627451%,25.098039%);fill-opacity:1;" d="M 39.902344 52.929688 L 34.628906 52.929688 C 34.628906 52.929688 31.980469 55.640625 30.398438 65.183594 C 30.152344 66.679688 29.933594 68.34375 29.753906 70.1875 L 35.023438 70.1875 C 35.203125 68.34375 35.425781 66.679688 35.671875 65.183594 C 37.253906 55.644531 39.902344 52.929688 39.902344 52.929688 Z M 39.902344 52.929688 "/>
<path style=" stroke:none;fill-rule:nonzero;fill:rgb(23.921569%,28.235294%,31.764706%);fill-opacity:1;" d="M 38.800781 81.386719 L 38.800781 86.644531 C 38.800781 87.75 37.90625 88.644531 36.800781 88.644531 L 28.191406 88.644531 C 26.851562 88.644531 25.898438 87.351562 26.273438 86.066406 C 27.152344 83.117188 29.253906 81.386719 29.253906 81.386719 Z M 38.800781 81.386719 "/>
<path style=" stroke:none;fill-rule:nonzero;fill:rgb(20%,22.745098%,25.490196%);fill-opacity:1;" d="M 31.546875 86.066406 C 32.421875 83.117188 34.519531 81.386719 34.519531 81.386719 L 29.253906 81.386719 C 29.253906 81.386719 27.152344 83.117188 26.273438 86.066406 C 25.898438 87.351562 26.851562 88.644531 28.191406 88.644531 L 33.464844 88.644531 C 32.121094 88.644531 31.164062 87.351562 31.546875 86.066406 Z M 31.546875 86.066406 "/>
<path style=" stroke:none;fill-rule:nonzero;fill:rgb(23.921569%,28.235294%,31.764706%);fill-opacity:1;" d="M 62.019531 88.644531 L 53.410156 88.644531 C 52.304688 88.644531 51.410156 87.75 51.410156 86.644531 L 51.410156 81.386719 L 60.960938 81.386719 C 60.960938 81.386719 63.058594 83.117188 63.9375 86.066406 C 64.316406 87.351562 63.359375 88.644531 62.019531 88.644531 Z M 62.019531 88.644531 "/>
<path style=" stroke:none;fill-rule:nonzero;fill:rgb(20%,22.745098%,25.490196%);fill-opacity:1;" d="M 56.683594 86.644531 L 56.683594 81.386719 L 51.410156 81.386719 L 51.410156 86.644531 C 51.410156 87.75 52.304688 88.644531 53.410156 88.644531 L 58.683594 88.644531 C 57.578125 88.644531 56.683594 87.75 56.683594 86.644531 Z M 56.683594 86.644531 "/>
<path style=" stroke:none;fill-rule:nonzero;fill:rgb(92.156863%,92.156863%,92.156863%);fill-opacity:1;" d="M 50.894531 52.929688 L 45.101562 57.128906 C 45.113281 57.21875 45.117188 57.304688 45.132812 57.386719 C 45.746094 62.222656 52.195312 63.523438 54.742188 59.367188 C 56.117188 57.117188 56.679688 54.621094 56.679688 54.621094 Z M 50.894531 52.929688 "/>
<path style=" stroke:none;fill-rule:nonzero;fill:rgb(92.156863%,92.156863%,92.156863%);fill-opacity:1;" d="M 39.316406 52.929688 L 45.101562 57.128906 C 45.097656 57.21875 45.085938 57.304688 45.078125 57.386719 C 44.46875 62.222656 38.011719 63.523438 35.472656 59.367188 C 34.097656 57.117188 33.527344 54.621094 33.527344 54.621094 Z M 39.316406 52.929688 "/>
<path style=" stroke:none;fill-rule:nonzero;fill:rgb(83.529412%,83.137255%,85.490196%);fill-opacity:1;" d="M 33.527344 54.621094 C 33.542969 54.683594 34.113281 57.144531 35.472656 59.367188 C 35.792969 59.894531 36.179688 60.328125 36.605469 60.6875 C 37.796875 56.007812 39.164062 53.882812 39.683594 53.199219 L 39.316406 52.929688 L 33.53125 54.617188 C 33.53125 54.621094 33.53125 54.621094 33.527344 54.621094 Z M 33.527344 54.621094 "/>
<path style=" stroke:none;fill-rule:nonzero;fill:rgb(0%,76.862745%,63.529412%);fill-opacity:1;" d="M 78.351562 31.324219 C 78.351562 34.640625 75.660156 37.332031 72.339844 37.332031 C 69.019531 37.332031 66.332031 34.640625 66.332031 31.324219 C 66.332031 28.007812 69.019531 25.3125 72.339844 25.3125 C 75.660156 25.3125 78.351562 28.007812 78.351562 31.324219 Z M 78.351562 31.324219 "/>
<path style=" stroke:none;fill-rule:nonzero;fill:rgb(100%,53.333333%,61.960784%);fill-opacity:1;" d="M 19.195312 20.710938 L 19.195312 14.71875 C 19.195312 11.527344 21.347656 8.847656 24.277344 8.039062 C 25.28125 7.765625 26.082031 6.980469 26.378906 5.976562 C 27.164062 3.28125 29.648438 1.320312 32.59375 1.320312 C 33.796875 1.320312 34.921875 1.644531 35.890625 2.21875 L 35.890625 20.710938 Z M 19.195312 20.710938 "/>
<path style=" stroke:none;fill-rule:nonzero;fill:rgb(99.215686%,37.254902%,49.411765%);fill-opacity:1;" d="M 30.796875 1.570312 L 30.617188 1.804688 C 28.785156 4.117188 28.382812 7.140625 29.402344 9.765625 C 29.820312 10.832031 29.785156 12.011719 29.335938 13.066406 C 29.308594 13.125 29.28125 13.183594 29.257812 13.246094 C 28.878906 14.195312 28.183594 14.992188 27.273438 15.457031 C 27.171875 15.511719 27.074219 15.5625 26.984375 15.617188 C 26.953125 15.632812 26.914062 15.644531 26.878906 15.644531 C 26.847656 15.644531 26.8125 15.632812 26.78125 15.617188 C 25.4375 14.863281 23.910156 14.464844 22.375 14.464844 C 21.285156 14.464844 20.210938 14.667969 19.195312 15.050781 L 19.195312 20.710938 L 35.890625 20.710938 L 35.890625 2.21875 C 34.921875 1.644531 33.796875 1.320312 32.59375 1.320312 C 31.972656 1.320312 31.371094 1.40625 30.796875 1.570312 Z M 30.796875 1.570312 "/>
<path style=" stroke:none;fill-rule:nonzero;fill:rgb(0%,86.27451%,76.470588%);fill-opacity:1;" d="M 72.335938 21.125 C 72.335938 10.679688 63.871094 2.21875 53.433594 2.21875 L 35.890625 2.21875 L 34.058594 4.527344 C 32.988281 5.882812 32.988281 7.796875 34.058594 9.15625 C 35.128906 10.511719 35.128906 12.421875 34.058594 13.777344 C 32.898438 14.941406 32.789062 16.792969 33.8125 18.085938 L 34.289062 18.683594 C 34.632812 19.125 34.121094 19.71875 33.636719 19.449219 C 32.234375 18.660156 30.527344 18.664062 29.128906 19.449219 C 27.730469 20.230469 26.03125 20.230469 24.636719 19.449219 C 23.234375 18.664062 21.523438 18.660156 20.125 19.449219 C 18.734375 20.230469 17.871094 21.699219 17.871094 23.296875 L 17.871094 30.96875 C 18.085938 45.453125 30.191406 57.128906 45.101562 57.128906 C 60.015625 57.128906 72.121094 45.453125 72.335938 30.96875 Z M 72.335938 21.125 "/>
<path style=" stroke:none;fill-rule:nonzero;fill:rgb(0%,76.862745%,63.529412%);fill-opacity:1;" d="M 23.144531 30.96875 L 23.144531 18.925781 C 22.121094 18.75 21.058594 18.921875 20.125 19.449219 C 18.734375 20.230469 17.871094 21.699219 17.871094 23.296875 L 17.871094 25.3125 C 17.871094 25.3125 17.871094 25.3125 17.867188 25.3125 C 14.546875 25.3125 11.859375 28.007812 11.859375 31.324219 C 11.859375 34.644531 14.546875 37.332031 17.867188 37.332031 C 18.171875 37.332031 18.460938 37.308594 18.742188 37.265625 C 21.78125 48.691406 32.429688 57.128906 45.101562 57.128906 C 45.992188 57.128906 46.871094 57.085938 47.738281 57.003906 C 34.066406 55.726562 23.34375 44.589844 23.144531 30.96875 Z M 23.144531 30.96875 "/>
<path style=" stroke:none;fill-rule:nonzero;fill:rgb(100%,53.333333%,61.960784%);fill-opacity:1;" d="M 60.101562 36.582031 L 56.597656 36.582031 C 55.867188 36.582031 55.277344 35.992188 55.277344 35.265625 C 55.277344 34.535156 55.867188 33.945312 56.597656 33.945312 L 60.101562 33.945312 C 60.832031 33.945312 61.421875 34.535156 61.421875 35.265625 C 61.421875 35.992188 60.832031 36.582031 60.101562 36.582031 Z M 60.101562 36.582031 "/>
<path style=" stroke:none;fill-rule:nonzero;fill:rgb(100%,53.333333%,61.960784%);fill-opacity:1;" d="M 33.617188 36.582031 L 30.109375 36.582031 C 29.382812 36.582031 28.792969 35.992188 28.792969 35.265625 C 28.792969 34.535156 29.382812 33.945312 30.109375 33.945312 L 33.617188 33.945312 C 34.34375 33.945312 34.933594 34.535156 34.933594 35.265625 C 34.933594 35.992188 34.34375 36.582031 33.617188 36.582031 Z M 33.617188 36.582031 "/>
<path style=" stroke:none;fill-rule:nonzero;fill:rgb(23.921569%,28.235294%,31.764706%);fill-opacity:1;" d="M 46.777344 34.375 L 43.433594 34.375 C 42.230469 34.375 41.25 35.351562 41.25 36.558594 C 41.25 37.761719 42.230469 38.738281 43.433594 38.738281 L 46.777344 38.738281 C 47.976562 38.738281 48.953125 37.761719 48.953125 36.558594 C 48.953125 35.351562 47.984375 34.375 46.777344 34.375 Z M 46.777344 34.375 "/>
<path style=" stroke:none;fill-rule:nonzero;fill:rgb(99.215686%,37.254902%,49.411765%);fill-opacity:1;" d="M 44.378906 43.625 C 43.652344 43.625 43.0625 43.035156 43.0625 42.3125 L 43.0625 38.738281 C 43.0625 38.011719 43.652344 37.421875 44.378906 37.421875 C 45.101562 37.421875 45.699219 38.011719 45.699219 38.738281 L 45.699219 42.3125 C 45.699219 43.035156 45.101562 43.625 44.378906 43.625 Z M 44.378906 43.625 "/>
<path style=" stroke:none;fill-rule:nonzero;fill:rgb(0%,0%,0%);fill-opacity:1;" d="M 59.667969 31.480469 L 59.667969 28.90625 C 59.667969 28.175781 59.078125 27.585938 58.347656 27.585938 C 57.621094 27.585938 57.03125 28.175781 57.03125 28.90625 L 57.03125 31.480469 C 57.03125 32.203125 57.621094 32.796875 58.347656 32.796875 C 59.078125 32.796875 59.667969 32.210938 59.667969 31.480469 Z M 59.667969 31.480469 "/>
<path style=" stroke:none;fill-rule:nonzero;fill:rgb(0%,0%,0%);fill-opacity:1;" d="M 33.179688 31.480469 L 33.179688 28.90625 C 33.179688 28.175781 32.585938 27.585938 31.863281 27.585938 C 31.132812 27.585938 30.542969 28.175781 30.542969 28.90625 L 30.542969 31.480469 C 30.542969 32.203125 31.132812 32.796875 31.863281 32.796875 C 32.585938 32.796875 33.179688 32.210938 33.179688 31.480469 Z M 33.179688 31.480469 "/>
<path style=" stroke:none;fill-rule:nonzero;fill:rgb(0%,0%,0%);fill-opacity:1;" d="M 44.378906 43.625 C 45.101562 43.625 45.699219 43.035156 45.699219 42.3125 L 45.699219 40.050781 L 46.777344 40.050781 C 48.707031 40.050781 50.273438 38.484375 50.273438 36.558594 C 50.273438 34.628906 48.707031 33.058594 46.777344 33.058594 L 43.433594 33.058594 C 41.503906 33.058594 39.933594 34.628906 39.933594 36.558594 C 39.933594 38.355469 41.304688 39.84375 43.0625 40.03125 L 43.0625 42.3125 C 43.0625 43.035156 43.652344 43.625 44.378906 43.625 Z M 42.570312 36.558594 C 42.570312 36.082031 42.957031 35.695312 43.433594 35.695312 L 46.777344 35.695312 C 47.253906 35.695312 47.640625 36.082031 47.640625 36.558594 C 47.640625 37.03125 47.253906 37.421875 46.777344 37.421875 L 43.433594 37.421875 C 42.957031 37.421875 42.570312 37.03125 42.570312 36.558594 Z M 42.570312 36.558594 "/>
<path style=" stroke:none;fill-rule:nonzero;fill:rgb(0%,0%,0%);fill-opacity:1;" d="M 72.449219 38.644531 C 76.4375 38.589844 79.664062 35.328125 79.664062 31.324219 C 79.664062 27.730469 77.070312 24.738281 73.652344 24.117188 L 73.652344 21.125 C 73.652344 16.605469 72.199219 12.335938 69.445312 8.769531 C 69 8.195312 68.171875 8.085938 67.59375 8.53125 C 67.019531 8.976562 66.910156 9.800781 67.355469 10.382812 C 69.753906 13.484375 71.015625 17.195312 71.015625 21.125 C 71.015625 21.125 71.015625 30.957031 71.015625 30.964844 C 70.957031 32.996094 70.707031 35.054688 70.171875 37.015625 C 69.007812 41.34375 66.667969 45.308594 63.316406 48.53125 C 58.457031 53.203125 51.839844 55.8125 45.101562 55.8125 C 38.398438 55.8125 31.734375 53.1875 26.890625 48.53125 C 22.160156 43.980469 19.191406 37.582031 19.191406 30.957031 C 19.191406 30.957031 19.191406 23.296875 19.191406 23.296875 C 19.191406 20.875 21.929688 19.445312 23.988281 20.597656 C 25.765625 21.59375 27.996094 21.59375 29.773438 20.597656 C 30.757812 20.050781 32.011719 20.042969 32.988281 20.597656 C 33.972656 21.144531 35.285156 20.625 35.632812 19.546875 C 35.933594 18.621094 35.378906 17.945312 34.839844 17.269531 C 34.234375 16.496094 34.304688 15.402344 34.992188 14.707031 C 36.65625 13.042969 36.476562 10.082031 35.09375 8.335938 C 34.394531 7.457031 34.394531 6.226562 35.09375 5.347656 L 36.527344 3.535156 L 53.433594 3.535156 C 57.210938 3.535156 60.808594 4.714844 63.851562 6.953125 C 64.433594 7.382812 65.257812 7.257812 65.691406 6.675781 C 66.125 6.085938 65.996094 5.261719 65.410156 4.828125 C 61.921875 2.257812 57.773438 0.898438 53.433594 0.898438 L 36.226562 0.898438 C 35.109375 0.308594 33.863281 0 32.59375 0 C 29.152344 0 26.078125 2.304688 25.109375 5.609375 C 24.945312 6.167969 24.496094 6.613281 23.925781 6.773438 C 20.363281 7.75 17.878906 11.015625 17.878906 14.71875 L 17.878906 19.640625 C 17.039062 20.65625 16.554688 21.941406 16.554688 23.296875 L 16.554688 24.117188 C 13.140625 24.738281 10.542969 27.730469 10.542969 31.324219 C 10.542969 35.328125 13.773438 38.589844 17.765625 38.644531 C 19.125 43.066406 21.605469 47.105469 25.0625 50.433594 C 26.117188 51.445312 27.242188 52.367188 28.414062 53.199219 C 26.816406 54.125 25.316406 55.445312 23.9375 57.140625 C 22.234375 59.234375 21.027344 61.027344 20.117188 62.800781 C 20.113281 62.8125 20.113281 62.816406 20.105469 62.828125 C 20.105469 62.832031 20.101562 62.832031 20.101562 62.835938 C 18.867188 65.257812 18.347656 67.484375 18.558594 69.460938 C 18.765625 71.363281 19.769531 73 21.386719 74.078125 C 22.511719 74.820312 23.824219 75.214844 25.1875 75.214844 C 26.203125 75.214844 27.195312 74.996094 28.105469 74.589844 C 28.03125 76.019531 27.980469 77.492188 27.953125 79.019531 L 27.953125 79.085938 C 27.945312 79.664062 27.9375 80.242188 27.933594 80.8125 C 27.183594 81.566406 25.730469 83.261719 25.011719 85.695312 C 24.386719 87.792969 26.003906 89.964844 28.191406 89.964844 L 36.800781 89.964844 C 38.628906 89.964844 40.121094 88.476562 40.121094 86.644531 L 40.121094 77.578125 C 40.121094 77.308594 40.335938 77.089844 40.605469 77.089844 L 49.605469 77.089844 C 49.875 77.089844 50.09375 77.308594 50.09375 77.578125 L 50.09375 86.644531 C 50.09375 88.476562 51.582031 89.964844 53.410156 89.964844 L 62.019531 89.964844 C 64.207031 89.964844 65.820312 87.789062 65.199219 85.695312 C 64.476562 83.261719 63.03125 81.574219 62.277344 80.8125 C 62.273438 80.242188 62.269531 79.675781 62.257812 79.085938 L 62.257812 79.007812 C 62.257812 79.003906 62.257812 79 62.257812 78.988281 C 62.230469 77.476562 62.179688 76.011719 62.109375 74.589844 C 63.015625 74.996094 64.011719 75.214844 65.023438 75.214844 C 66.382812 75.214844 67.695312 74.820312 68.824219 74.078125 C 70.441406 73 71.445312 71.363281 71.644531 69.460938 C 71.859375 67.496094 71.347656 65.277344 70.125 62.867188 C 69.171875 60.792969 67.703125 58.898438 66.269531 57.132812 C 64.890625 55.4375 63.390625 54.125 61.792969 53.199219 C 62.972656 52.367188 64.09375 51.445312 65.148438 50.429688 C 68.601562 47.105469 71.082031 43.066406 72.449219 38.644531 Z M 77.035156 31.324219 C 77.035156 33.640625 75.34375 35.570312 73.128906 35.945312 C 73.289062 35.140625 73.414062 34.324219 73.503906 33.496094 C 73.503906 33.480469 73.640625 31.8125 73.652344 30.988281 C 73.652344 30.984375 73.652344 30.980469 73.652344 30.96875 L 73.652344 26.820312 C 75.601562 27.390625 77.035156 29.191406 77.035156 31.324219 Z M 20.515625 14.71875 C 20.515625 12.203125 22.207031 9.976562 24.628906 9.3125 C 26.066406 8.914062 27.226562 7.78125 27.644531 6.34375 C 28.28125 4.160156 30.316406 2.636719 32.59375 2.636719 C 32.996094 2.636719 33.386719 2.683594 33.769531 2.769531 L 33.027344 3.710938 C 31.566406 5.550781 31.566406 8.128906 33.027344 9.96875 C 33.707031 10.835938 33.722656 12.035156 33.066406 12.910156 C 32.570312 13.425781 32.203125 14.046875 31.996094 14.734375 C 31.714844 15.660156 31.726562 16.664062 32.050781 17.578125 C 31.011719 17.460938 29.941406 17.628906 28.976562 18.058594 C 28.808594 18.132812 28.640625 18.207031 28.488281 18.300781 C 27.503906 18.851562 26.253906 18.851562 25.277344 18.300781 C 23.832031 17.492188 22.082031 17.320312 20.515625 17.84375 Z M 13.179688 31.324219 C 13.179688 29.191406 14.605469 27.390625 16.554688 26.820312 L 16.554688 30.996094 C 16.582031 32.652344 16.757812 34.320312 17.082031 35.945312 C 14.867188 35.570312 13.179688 33.640625 13.179688 31.324219 Z M 57.476562 60.519531 C 58.214844 63.25 58.667969 66.0625 58.988281 68.871094 L 31.222656 68.871094 C 31.253906 68.570312 31.332031 67.925781 31.332031 67.925781 C 31.707031 64.65625 32.347656 61.398438 33.414062 58.28125 C 33.675781 58.859375 33.988281 59.464844 34.351562 60.054688 C 35.558594 62.039062 37.585938 63.179688 39.902344 63.179688 C 41.800781 63.179688 43.820312 62.328125 45.101562 60.691406 C 46.390625 62.328125 48.40625 63.179688 50.304688 63.179688 C 52.625 63.179688 54.648438 62.039062 55.863281 60.054688 C 56.199219 59.507812 56.507812 58.914062 56.792969 58.277344 C 56.804688 58.296875 56.808594 58.316406 56.8125 58.339844 C 57.0625 59.058594 57.277344 59.785156 57.476562 60.519531 Z M 46.917969 58.390625 C 49.503906 58.234375 52.066406 57.734375 54.523438 56.902344 C 54.273438 57.476562 53.976562 58.085938 53.613281 58.679688 C 52.890625 59.863281 51.683594 60.542969 50.304688 60.542969 C 48.964844 60.542969 47.457031 59.863281 46.773438 58.402344 C 46.820312 58.402344 46.867188 58.394531 46.917969 58.390625 Z M 43.4375 58.402344 C 42.757812 59.863281 41.246094 60.542969 39.902344 60.542969 C 38.527344 60.542969 37.316406 59.863281 36.597656 58.679688 C 36.238281 58.089844 35.933594 57.476562 35.6875 56.902344 C 36.59375 57.210938 37.519531 57.476562 38.460938 57.691406 C 40.046875 58.058594 41.664062 58.292969 43.292969 58.390625 C 43.339844 58.394531 43.386719 58.402344 43.4375 58.402344 Z M 25.984375 58.796875 C 27.539062 56.886719 29.238281 55.558594 31.039062 54.84375 C 31.285156 54.976562 31.527344 55.113281 31.773438 55.238281 C 31.769531 55.246094 31.765625 55.257812 31.757812 55.269531 C 30.644531 57.800781 29.949219 60.503906 29.417969 63.214844 C 29.257812 64.046875 29.113281 64.878906 28.984375 65.714844 C 28.976562 65.738281 28.976562 65.757812 28.972656 65.773438 L 23.089844 62.863281 C 23.832031 61.609375 24.769531 60.292969 25.984375 58.796875 Z M 28.328125 71.308594 L 28.199219 71.425781 C 26.734375 72.726562 24.496094 72.976562 22.847656 71.882812 C 20.554688 70.363281 21.007812 67.414062 21.90625 65.214844 L 28.605469 68.535156 C 28.550781 69.015625 28.363281 70.875 28.328125 71.308594 Z M 37.484375 86.644531 C 37.484375 87.023438 37.179688 87.328125 36.800781 87.328125 L 28.191406 87.328125 C 27.738281 87.328125 27.410156 86.878906 27.539062 86.441406 C 28.089844 84.585938 29.222656 83.261719 29.773438 82.703125 L 37.484375 82.703125 Z M 49.605469 74.453125 L 40.605469 74.453125 C 38.882812 74.453125 37.484375 75.855469 37.484375 77.578125 L 37.484375 80.070312 L 30.574219 80.070312 C 30.574219 79.753906 30.582031 79.4375 30.585938 79.117188 C 30.585938 79.113281 30.585938 79.101562 30.585938 79.097656 L 30.585938 79.050781 C 30.632812 76.53125 30.746094 74.015625 30.953125 71.507812 L 59.253906 71.507812 C 59.476562 71.515625 59.625 78.414062 59.625 79.023438 L 59.625 79.097656 C 59.625 79.101562 59.625 79.113281 59.625 79.117188 C 59.632812 79.4375 59.636719 79.753906 59.636719 80.070312 L 52.730469 80.070312 L 52.730469 77.578125 C 52.730469 75.855469 51.328125 74.453125 49.605469 74.453125 Z M 62.5625 87.054688 C 62.4375 87.21875 62.242188 87.328125 62.019531 87.328125 L 53.410156 87.328125 C 53.035156 87.328125 52.730469 87.023438 52.730469 86.644531 L 52.730469 82.703125 L 60.4375 82.703125 C 60.992188 83.269531 62.125 84.585938 62.671875 86.441406 C 62.738281 86.660156 62.6875 86.886719 62.5625 87.054688 Z M 69.03125 69.179688 C 68.90625 70.324219 68.347656 71.226562 67.367188 71.878906 C 65.625 73.039062 63.394531 72.65625 61.886719 71.308594 C 61.886719 71.289062 61.878906 71.269531 61.878906 71.242188 C 61.800781 70.339844 61.714844 69.433594 61.605469 68.535156 L 68.304688 65.214844 C 68.910156 66.695312 69.15625 68.023438 69.03125 69.179688 Z M 64.226562 58.796875 C 65.4375 60.292969 66.378906 61.609375 67.117188 62.863281 L 61.238281 65.773438 C 61.234375 65.753906 61.234375 65.730469 61.230469 65.710938 C 60.710938 62.375 60.003906 59.035156 58.726562 55.910156 C 58.632812 55.6875 58.441406 55.242188 58.4375 55.238281 C 58.683594 55.113281 58.929688 54.976562 59.171875 54.84375 C 60.96875 55.558594 62.671875 56.886719 64.226562 58.796875 Z M 64.226562 58.796875 "/>
</g>
</svg>
