<?xml version="1.0" encoding="UTF-8"?>
<svg xmlns="http://www.w3.org/2000/svg" xmlns:xlink="http://www.w3.org/1999/xlink" width="90pt" height="90pt" viewBox="0 0 90 90" version="1.1">
<g id="surface1">
<path style=" stroke:none;fill-rule:nonzero;fill:rgb(92.941176%,60.784314%,51.372549%);fill-opacity:1;" d="M 75.851562 56.671875 C 70.4375 56.632812 66.074219 61.125 66.074219 66.539062 L 66.074219 86.777344 C 66.074219 87.828125 66.925781 88.679688 67.976562 88.679688 L 70.132812 88.679688 C 71.183594 88.679688 72.039062 87.828125 72.039062 86.777344 L 72.039062 66.46875 C 72.039062 64.441406 73.609375 62.714844 75.632812 62.640625 C 77.757812 62.558594 79.515625 64.265625 79.515625 66.375 C 79.515625 68.03125 80.863281 69.371094 82.523438 69.355469 C 84.199219 69.34375 85.503906 67.882812 85.476562 66.207031 C 85.386719 60.960938 81.109375 56.710938 75.851562 56.671875 Z M 75.851562 56.671875 "/>
<path style=" stroke:none;fill-rule:nonzero;fill:rgb(69.803922%,69.019608%,73.72549%);fill-opacity:1;" d="M 23.414062 20.664062 C 20.789062 25.046875 19.277344 30.171875 19.277344 35.640625 C 19.277344 36.871094 19.355469 38.085938 19.503906 39.273438 L 77.511719 39.273438 C 77.660156 38.085938 77.738281 36.871094 77.738281 35.640625 C 77.738281 30.171875 76.226562 25.046875 73.597656 20.664062 Z M 23.414062 20.664062 "/>
<path style=" stroke:none;fill-rule:nonzero;fill:rgb(30.980392%,29.803922%,37.254902%);fill-opacity:1;" d="M 39.785156 81.914062 L 49.261719 81.914062 L 49.261719 68.5625 L 39.785156 72.023438 Z M 39.785156 81.914062 "/>
<path style=" stroke:none;fill-rule:nonzero;fill:rgb(100%,82.745098%,73.72549%);fill-opacity:1;" d="M 66.566406 71.164062 C 64.644531 73.589844 61.105469 74.015625 58.667969 72.082031 L 55.707031 69.734375 L 56.265625 62.742188 L 62.691406 60.921875 L 65.648438 63.265625 C 68.082031 65.195312 68.492188 68.730469 66.566406 71.164062 Z M 66.566406 71.164062 "/>
<path style=" stroke:none;fill-rule:nonzero;fill:rgb(100%,53.72549%,59.215686%);fill-opacity:1;" d="M 62.691406 60.921875 L 55.707031 69.738281 L 45.015625 61.265625 C 42.582031 59.335938 42.171875 55.800781 44.101562 53.367188 C 46.027344 50.933594 49.566406 50.523438 52 52.449219 Z M 62.691406 60.921875 "/>
<path style=" stroke:none;fill-rule:nonzero;fill:rgb(100%,43.529412%,49.803922%);fill-opacity:1;" d="M 51.316406 64.320312 C 51.316406 65.273438 51.210938 66.203125 51.007812 67.097656 L 38.683594 72.023438 L 26.355469 67.097656 C 26.152344 66.203125 26.046875 65.273438 26.046875 64.320312 C 26.046875 57.339844 31.703125 51.6875 38.683594 51.6875 C 45.660156 51.6875 51.316406 57.339844 51.316406 64.320312 Z M 51.316406 64.320312 "/>
<path style=" stroke:none;fill-rule:nonzero;fill:rgb(36.078431%,34.509804%,43.529412%);fill-opacity:1;" d="M 51.007812 67.097656 L 26.355469 67.097656 C 26.945312 69.730469 28.359375 72.050781 30.308594 73.777344 L 30.308594 81.914062 L 39.785156 81.914062 L 39.785156 76.902344 C 45.3125 76.425781 49.820312 72.390625 51.007812 67.097656 Z M 51.007812 67.097656 "/>
<path style=" stroke:none;fill-rule:nonzero;fill:rgb(100%,82.745098%,73.72549%);fill-opacity:1;" d="M 34.195312 65.601562 C 33.917969 65.21875 33.742188 64.796875 33.65625 64.363281 L 28.925781 61.433594 L 23.355469 67.671875 C 23.796875 69.171875 24.496094 70.621094 25.46875 71.957031 C 27.222656 74.367188 30.601562 74.894531 33.011719 73.140625 C 35.421875 71.386719 35.953125 68.007812 34.195312 65.601562 Z M 34.195312 65.601562 "/>
<path style=" stroke:none;fill-rule:nonzero;fill:rgb(100%,53.72549%,59.215686%);fill-opacity:1;" d="M 36.070312 53.679688 C 34.316406 51.269531 30.941406 50.738281 28.53125 52.496094 C 23.640625 56.054688 21.746094 62.1875 23.355469 67.671875 L 33.65625 64.363281 C 33.425781 63.203125 33.867188 61.964844 34.886719 61.222656 C 37.296875 59.46875 37.828125 56.089844 36.070312 53.679688 Z M 36.070312 53.679688 "/>
<path style=" stroke:none;fill-rule:nonzero;fill:rgb(63.137255%,61.568627%,68.235294%);fill-opacity:1;" d="M 30.402344 30.761719 C 30.402344 27.242188 30.980469 23.851562 32.046875 20.664062 L 23.414062 20.664062 C 20.789062 25.046875 19.277344 30.171875 19.277344 35.640625 C 19.277344 36.871094 19.355469 38.085938 19.503906 39.273438 L 31.5625 39.273438 C 30.808594 36.558594 30.402344 33.707031 30.402344 30.761719 Z M 30.402344 30.761719 "/>
<path style=" stroke:none;fill-rule:nonzero;fill:rgb(100%,74.509804%,61.176471%);fill-opacity:1;" d="M 78.515625 39.273438 C 78.515625 42.953125 75.535156 45.9375 71.855469 45.9375 C 68.175781 45.9375 65.195312 42.953125 65.195312 39.273438 C 65.195312 35.59375 68.175781 32.613281 71.855469 32.613281 C 75.535156 32.613281 78.515625 35.59375 78.515625 39.273438 Z M 78.515625 39.273438 "/>
<path style=" stroke:none;fill-rule:nonzero;fill:rgb(100%,82.745098%,73.72549%);fill-opacity:1;" d="M 71.683594 35.640625 C 71.683594 48.441406 61.304688 58.816406 48.507812 58.816406 C 35.707031 58.816406 25.332031 48.441406 25.332031 35.640625 C 25.332031 22.84375 35.707031 12.464844 48.507812 12.464844 C 61.304688 12.464844 71.683594 22.84375 71.683594 35.640625 Z M 71.683594 35.640625 "/>
<path style=" stroke:none;fill-rule:nonzero;fill:rgb(100%,43.529412%,49.803922%);fill-opacity:1;" d="M 68.355469 8.800781 C 67.269531 4.40625 63.328125 1.320312 58.796875 1.320312 L 38.214844 1.320312 C 33.6875 1.320312 29.742188 4.40625 28.65625 8.800781 L 26.886719 15.964844 L 48.507812 20.664062 L 70.125 15.964844 Z M 68.355469 8.800781 "/>
<path style=" stroke:none;fill-rule:nonzero;fill:rgb(69.803922%,69.019608%,73.72549%);fill-opacity:1;" d="M 48.507812 43.898438 C 51.679688 47.863281 56.355469 46.222656 58.820312 44.917969 C 59.417969 44.601562 59.460938 43.773438 58.90625 43.382812 C 57.496094 42.394531 56.671875 40.230469 55.503906 39.140625 C 53.691406 37.449219 50.566406 36.421875 48.507812 38.289062 C 46.449219 36.421875 43.324219 37.449219 41.511719 39.140625 C 40.34375 40.230469 39.519531 42.394531 38.105469 43.382812 C 37.550781 43.773438 37.59375 44.601562 38.191406 44.917969 C 40.660156 46.222656 45.332031 47.863281 48.507812 43.898438 Z M 48.507812 43.898438 "/>
<path style=" stroke:none;fill-rule:nonzero;fill:rgb(90.588235%,53.333333%,43.137255%);fill-opacity:1;" d="M 49.261719 81.914062 L 39.785156 81.914062 L 39.785156 85.109375 C 39.785156 87.082031 41.386719 88.679688 43.359375 88.679688 L 48.941406 88.679688 C 50.832031 88.679688 52.359375 87.152344 52.359375 85.261719 C 52.359375 83.414062 51.113281 81.914062 49.261719 81.914062 Z M 49.261719 81.914062 "/>
<path style=" stroke:none;fill-rule:nonzero;fill:rgb(92.941176%,60.784314%,51.372549%);fill-opacity:1;" d="M 39.785156 81.914062 L 30.308594 81.914062 L 30.308594 85.109375 C 30.308594 87.082031 31.90625 88.679688 33.882812 88.679688 L 39.464844 88.679688 C 41.355469 88.679688 42.882812 87.152344 42.882812 85.261719 C 42.882812 83.414062 41.636719 81.914062 39.785156 81.914062 Z M 39.785156 81.914062 "/>
<path style=" stroke:none;fill-rule:nonzero;fill:rgb(98.823529%,36.078431%,43.921569%);fill-opacity:1;" d="M 49.101562 1.320312 L 38.214844 1.320312 C 33.6875 1.320312 29.742188 4.40625 28.65625 8.800781 L 26.886719 15.964844 L 33.355469 17.371094 C 36.546875 10.472656 42.128906 4.804688 49.101562 1.320312 Z M 49.101562 1.320312 "/>
<path style=" stroke:none;fill-rule:nonzero;fill:rgb(100%,74.509804%,61.176471%);fill-opacity:1;" d="M 46.429688 58.722656 C 36.789062 52.808594 30.402344 42.496094 30.402344 30.761719 C 30.402344 26.464844 31.261719 22.355469 32.820312 18.582031 C 28.914062 22.175781 26.246094 27.09375 25.527344 32.625 C 25.40625 32.617188 25.28125 32.613281 25.160156 32.613281 C 21.480469 32.613281 18.496094 35.59375 18.496094 39.273438 C 18.496094 42.953125 21.480469 45.9375 25.160156 45.9375 C 26.035156 45.9375 26.820312 45.765625 27.507812 45.457031 C 30.925781 52.753906 38.035156 57.976562 46.429688 58.722656 Z M 46.429688 58.722656 "/>
<path style=" stroke:none;fill-rule:nonzero;fill:rgb(100%,53.72549%,59.215686%);fill-opacity:1;" d="M 72.683594 15.964844 L 24.328125 15.964844 C 21.109375 15.964844 18.496094 18.574219 18.496094 21.796875 L 18.496094 22.730469 C 18.496094 24.1875 19.679688 25.367188 21.136719 25.367188 L 75.878906 25.367188 C 77.335938 25.367188 78.515625 24.1875 78.515625 22.730469 L 78.515625 21.796875 C 78.515625 18.574219 75.90625 15.964844 72.683594 15.964844 Z M 72.683594 15.964844 "/>
<path style=" stroke:none;fill-rule:nonzero;fill:rgb(100%,43.529412%,49.803922%);fill-opacity:1;" d="M 34.046875 15.964844 L 24.328125 15.964844 C 21.109375 15.964844 18.496094 18.574219 18.496094 21.796875 L 18.496094 22.730469 C 18.496094 24.1875 19.679688 25.367188 21.136719 25.367188 L 30.863281 25.367188 C 31.433594 22.039062 32.523438 18.878906 34.046875 15.964844 Z M 34.046875 15.964844 "/>
<path style=" stroke:none;fill-rule:nonzero;fill:rgb(0%,0%,0%);fill-opacity:1;" d="M 37.902344 35.234375 C 37.902344 35.960938 38.492188 36.550781 39.222656 36.550781 C 39.949219 36.550781 40.539062 35.960938 40.539062 35.234375 C 40.539062 33.03125 38.75 31.238281 36.546875 31.238281 C 34.34375 31.238281 32.550781 33.03125 32.550781 35.234375 C 32.550781 35.960938 33.140625 36.550781 33.871094 36.550781 C 34.597656 36.550781 35.1875 35.960938 35.1875 35.234375 C 35.1875 34.484375 35.796875 33.875 36.546875 33.875 C 37.292969 33.875 37.902344 34.484375 37.902344 35.234375 Z M 37.902344 35.234375 "/>
<path style=" stroke:none;fill-rule:nonzero;fill:rgb(0%,0%,0%);fill-opacity:1;" d="M 60.46875 31.238281 C 58.265625 31.238281 56.472656 33.03125 56.472656 35.234375 C 56.472656 35.960938 57.0625 36.550781 57.792969 36.550781 C 58.519531 36.550781 59.109375 35.960938 59.109375 35.234375 C 59.109375 34.484375 59.71875 33.875 60.46875 33.875 C 61.21875 33.875 61.824219 34.484375 61.824219 35.234375 C 61.824219 35.960938 62.417969 36.550781 63.144531 36.550781 C 63.871094 36.550781 64.460938 35.960938 64.460938 35.234375 C 64.460938 33.03125 62.671875 31.238281 60.46875 31.238281 Z M 60.46875 31.238281 "/>
<path style=" stroke:none;fill-rule:nonzero;fill:rgb(0%,0%,0%);fill-opacity:1;" d="M 59.664062 42.304688 C 58.558594 41.53125 57.6875 39.375 56.402344 38.175781 C 54.328125 36.246094 51.03125 35.207031 48.507812 36.664062 C 45.984375 35.207031 42.683594 36.246094 40.609375 38.175781 C 39.304688 39.394531 38.472656 41.519531 37.351562 42.304688 C 35.984375 43.261719 36.109375 45.308594 37.578125 46.085938 C 41.242188 48.019531 45.386719 48.558594 48.507812 45.808594 C 51.25 48.226562 55.152344 48.347656 59.4375 46.085938 C 60.125 45.722656 60.5625 45.042969 60.613281 44.265625 C 60.660156 43.488281 60.304688 42.753906 59.664062 42.304688 Z M 49.535156 43.074219 C 49.007812 42.414062 48.003906 42.414062 47.476562 43.074219 C 45.210938 45.910156 41.929688 45.253906 39.386719 44.042969 C 40.707031 42.832031 41.539062 40.917969 42.410156 40.105469 C 43.664062 38.933594 46.113281 37.898438 47.621094 39.265625 C 48.125 39.722656 48.890625 39.722656 49.390625 39.265625 C 50.898438 37.898438 53.347656 38.933594 54.605469 40.105469 C 55.484375 40.925781 56.296875 42.824219 57.628906 44.042969 C 55.085938 45.253906 51.804688 45.910156 49.535156 43.074219 Z M 49.535156 43.074219 "/>
<path style=" stroke:none;fill-rule:nonzero;fill:rgb(0%,0%,0%);fill-opacity:1;" d="M 13.542969 56.71875 L 15.925781 55.75 L 15.925781 59.855469 C 15.925781 60.585938 16.515625 61.175781 17.242188 61.175781 C 17.972656 61.175781 18.5625 60.585938 18.5625 59.855469 L 18.5625 53.789062 C 18.5625 52.855469 17.613281 52.214844 16.746094 52.570312 L 14.367188 53.535156 L 14.367188 49.429688 C 14.367188 48.699219 13.777344 48.109375 13.046875 48.109375 C 12.320312 48.109375 11.730469 48.699219 11.730469 49.429688 L 11.730469 55.496094 C 11.730469 56.429688 12.675781 57.070312 13.542969 56.71875 Z M 13.542969 56.71875 "/>
<path style=" stroke:none;fill-rule:nonzero;fill:rgb(0%,0%,0%);fill-opacity:1;" d="M 7.878906 67.5625 C 8.542969 68.226562 9.664062 68.003906 10.027344 67.144531 L 11.027344 64.777344 L 13.929688 67.679688 C 14.1875 67.9375 14.523438 68.066406 14.863281 68.066406 C 16.027344 68.066406 16.628906 66.648438 15.792969 65.816406 L 11.503906 61.527344 C 10.84375 60.867188 9.722656 61.085938 9.359375 61.945312 L 8.359375 64.3125 L 5.453125 61.410156 C 4.941406 60.894531 4.105469 60.894531 3.589844 61.410156 C 3.074219 61.925781 3.074219 62.757812 3.589844 63.273438 Z M 7.878906 67.5625 "/>
<path style=" stroke:none;fill-rule:nonzero;fill:rgb(0%,0%,0%);fill-opacity:1;" d="M 26.847656 47.074219 C 27.515625 48.332031 28.289062 49.527344 29.160156 50.644531 C 28.664062 50.847656 28.195312 51.109375 27.753906 51.429688 C 21.058594 56.304688 19.371094 65.820312 24.402344 72.730469 C 25.535156 74.289062 27.214844 75.210938 28.988281 75.4375 L 28.988281 85.109375 C 28.988281 87.804688 31.183594 90 33.882812 90 L 39.464844 90 C 40.152344 90 40.808594 89.851562 41.398438 89.585938 C 42.011719 89.855469 42.679688 90 43.359375 90 L 48.941406 90 C 51.554688 90 53.679688 87.875 53.679688 85.261719 C 53.679688 83.089844 52.414062 81.355469 50.582031 80.789062 L 50.582031 71.609375 C 51.179688 70.636719 51.660156 69.585938 52.003906 68.484375 C 53.007812 69.277344 56.46875 72.023438 57.847656 73.113281 C 59.859375 74.707031 62.503906 75.011719 64.753906 74.109375 L 64.753906 86.777344 C 64.753906 88.554688 66.199219 90 67.976562 90 L 70.132812 90 C 71.910156 90 73.355469 88.554688 73.355469 86.777344 L 73.355469 80.308594 C 73.355469 79.578125 72.765625 78.988281 72.039062 78.988281 C 71.308594 78.988281 70.71875 79.578125 70.71875 80.308594 L 70.71875 86.777344 C 70.71875 87.101562 70.457031 87.363281 70.132812 87.363281 L 67.976562 87.363281 C 67.65625 87.363281 67.390625 87.101562 67.390625 86.777344 L 67.390625 72.230469 C 69.519531 69.800781 69.632812 66.234375 67.863281 63.722656 C 69.042969 60.292969 72.238281 57.960938 75.839844 57.992188 C 80.351562 58.027344 84.082031 61.722656 84.160156 66.230469 C 84.167969 66.71875 83.976562 67.195312 83.640625 67.542969 C 82.597656 68.617188 80.832031 67.824219 80.832031 66.375 C 80.832031 63.511719 78.457031 61.214844 75.582031 61.320312 C 72.855469 61.425781 70.71875 63.683594 70.71875 66.46875 L 70.71875 75.074219 C 70.71875 75.804688 71.308594 76.394531 72.039062 76.394531 C 72.765625 76.394531 73.355469 75.804688 73.355469 75.074219 L 73.355469 66.46875 C 73.355469 65.132812 74.398438 64.003906 75.683594 63.957031 C 77.066406 63.90625 78.195312 65.015625 78.195312 66.375 C 78.195312 70.167969 82.828125 72.15625 85.527344 69.382812 C 86.355469 68.535156 86.816406 67.371094 86.796875 66.183594 C 86.746094 63.300781 85.585938 60.589844 83.53125 58.550781 C 81.472656 56.511719 78.75 55.375 75.859375 55.355469 C 71.539062 55.320312 67.652344 57.863281 65.835938 61.730469 C 65.835938 61.730469 60.875 57.800781 60.121094 57.203125 C 64.386719 54.894531 67.894531 51.359375 70.164062 47.074219 C 75.136719 48.152344 79.835938 44.347656 79.835938 39.273438 C 79.835938 38.042969 79.554688 36.875 79.054688 35.832031 C 79.097656 32.882812 78.625 29.503906 77.589844 26.296875 C 78.917969 25.65625 79.835938 24.296875 79.835938 22.730469 L 79.835938 21.796875 C 79.835938 17.851562 76.628906 14.644531 72.683594 14.644531 L 71.15625 14.644531 L 69.636719 8.484375 C 68.402344 3.488281 63.945312 0 58.796875 0 L 38.214844 0 C 33.070312 0 28.613281 3.488281 27.378906 8.484375 L 25.855469 14.644531 L 24.328125 14.644531 C 20.386719 14.644531 17.179688 17.851562 17.179688 21.796875 L 17.179688 22.730469 C 17.179688 24.296875 18.097656 25.65625 19.421875 26.296875 C 18.394531 29.492188 17.914062 32.867188 17.960938 35.832031 C 17.460938 36.875 17.179688 38.042969 17.179688 39.273438 C 17.179688 44.339844 21.867188 48.152344 26.847656 47.074219 Z M 20.757812 32.617188 C 20.976562 30.597656 21.414062 28.613281 22.070312 26.6875 L 25.703125 26.6875 C 25.109375 28.191406 24.671875 29.742188 24.390625 31.332031 C 23.128906 31.46875 21.902344 31.859375 20.757812 32.617188 Z M 25.699219 44.589844 C 22.546875 44.910156 19.816406 42.425781 19.816406 39.273438 C 19.816406 36.714844 21.636719 34.550781 24.066406 34.042969 C 23.839844 37.570312 24.347656 41.15625 25.699219 44.589844 Z M 49.191406 60.125 C 49.902344 61.898438 50.152344 63.8125 49.898438 65.777344 L 35.84375 65.777344 C 35.695312 65.480469 35.480469 65.125 35.261719 64.824219 C 34.660156 63.996094 34.867188 62.867188 35.660156 62.289062 C 37.03125 61.289062 38.042969 59.726562 38.335938 57.929688 C 41.597656 59.414062 45.3125 60.230469 49.191406 60.125 Z M 47.945312 80.59375 L 41.105469 80.59375 L 41.105469 78.0625 C 43.671875 77.613281 46.027344 76.46875 47.945312 74.761719 Z M 39.671875 75.589844 C 38.988281 75.648438 38.46875 76.21875 38.46875 76.902344 L 38.46875 80.59375 L 31.625 80.59375 L 31.625 75.25 C 34.652344 74.414062 36.71875 71.5625 36.542969 68.414062 L 49.238281 68.414062 C 47.734375 72.320312 44.082031 75.210938 39.671875 75.589844 Z M 29.308594 53.558594 C 29.832031 53.179688 30.425781 52.929688 31.058594 52.828125 C 32.476562 54.269531 34.058594 55.523438 35.773438 56.570312 C 35.871094 58.023438 35.207031 59.355469 34.109375 60.15625 C 33.0625 60.917969 32.394531 62.117188 32.292969 63.417969 L 24.308594 65.980469 C 23.46875 61.277344 25.378906 56.417969 29.308594 53.558594 Z M 26.535156 71.179688 C 25.929688 70.347656 25.429688 69.453125 25.046875 68.515625 L 32.882812 65.996094 C 32.957031 66.125 33.050781 66.265625 33.132812 66.375 C 35 69.078125 33.304688 72.492188 30.292969 72.828125 C 28.882812 72.988281 27.429688 72.40625 26.535156 71.179688 Z M 33.878906 87.363281 C 32.636719 87.363281 31.625 86.351562 31.625 85.109375 L 31.625 83.230469 L 39.785156 83.230469 C 41.007812 83.230469 41.566406 84.285156 41.566406 85.261719 C 41.566406 86.410156 40.625 87.363281 39.464844 87.363281 Z M 48.941406 87.363281 L 43.710938 87.363281 C 44.390625 85.976562 44.304688 84.40625 43.792969 83.230469 L 49.261719 83.230469 C 50.484375 83.230469 51.042969 84.285156 51.042969 85.261719 C 51.042969 86.421875 50.101562 87.363281 48.941406 87.363281 Z M 65.636719 65.140625 C 68.640625 69.273438 63.300781 74.070312 59.484375 71.046875 L 57.558594 69.523438 L 62.90625 62.773438 C 64.8125 64.3125 65.121094 64.4375 65.636719 65.140625 Z M 57.449219 58.449219 L 60.839844 61.136719 L 55.492188 67.882812 L 52.578125 65.574219 C 52.75 63.660156 52.53125 61.738281 51.917969 59.898438 C 53.871094 59.625 55.761719 59.113281 57.449219 58.449219 Z M 40.464844 55.964844 C 29.121094 51.460938 23.796875 38.675781 28.171875 27.613281 C 28.179688 27.597656 28.1875 27.578125 28.195312 27.558594 C 28.300781 27.289062 28.414062 27.019531 28.566406 26.6875 L 68.449219 26.6875 C 76.421875 44.378906 58.816406 63.199219 40.464844 55.964844 Z M 72.625 31.332031 C 72.34375 29.742188 71.90625 28.191406 71.3125 26.6875 L 74.941406 26.6875 C 75.597656 28.613281 76.039062 30.597656 76.257812 32.617188 C 75.207031 31.921875 73.992188 31.480469 72.625 31.332031 Z M 71.3125 44.589844 C 72.636719 41.234375 73.179688 37.660156 72.949219 34.042969 C 74.460938 34.359375 75.765625 35.324219 76.523438 36.675781 C 78.609375 40.410156 75.625 45.027344 71.3125 44.589844 Z M 19.816406 21.796875 C 19.816406 19.304688 21.839844 17.28125 24.328125 17.28125 L 36.929688 17.28125 C 37.660156 17.28125 38.25 16.691406 38.25 15.964844 C 38.25 15.238281 37.660156 14.644531 36.929688 14.644531 L 28.570312 14.644531 L 29.9375 9.117188 C 30.878906 5.300781 34.285156 2.636719 38.214844 2.636719 L 58.796875 2.636719 C 62.730469 2.636719 66.132812 5.300781 67.078125 9.117188 L 68.441406 14.644531 L 42.203125 14.644531 C 41.476562 14.644531 40.886719 15.234375 40.886719 15.964844 C 40.886719 16.691406 41.476562 17.28125 42.203125 17.28125 L 72.683594 17.28125 C 75.171875 17.28125 77.199219 19.304688 77.199219 21.796875 L 77.199219 22.730469 C 77.199219 23.457031 76.605469 24.046875 75.878906 24.046875 L 75.871094 24.046875 C 60.128906 24.046875 25.683594 24.046875 21.136719 24.046875 C 20.40625 24.046875 19.816406 23.457031 19.816406 22.730469 Z M 19.816406 21.796875 "/>
</g>
</svg>
